<?xml version="1.0" encoding="UTF-8" standalone="no"?>
<!-- Uploaded to: SVG Repo, www.svgrepo.com, Generator: SVG Repo Mixer Tools -->

<svg
   width="800px"
   height="800px"
   viewBox="0 0 1024 1024"
   fill="#000000"
   class="icon"
   version="1.1"
   id="svg1"
   sodipodi:docname="trumpet-svgrepo-com.svg"
   inkscape:version="1.3.2 (091e20e, 2023-11-25, custom)"
   xmlns:inkscape="http://www.inkscape.org/namespaces/inkscape"
   xmlns:sodipodi="http://sodipodi.sourceforge.net/DTD/sodipodi-0.dtd"
   xmlns="http://www.w3.org/2000/svg"
   xmlns:svg="http://www.w3.org/2000/svg">
  <defs
     id="defs1" />
  <sodipodi:namedview
     id="namedview1"
     pagecolor="#ffffff"
     bordercolor="#666666"
     borderopacity="1.0"
     inkscape:showpageshadow="2"
     inkscape:pageopacity="0.0"
     inkscape:pagecheckerboard="0"
     inkscape:deskcolor="#d1d1d1"
     inkscape:zoom="0.72875"
     inkscape:cx="400"
     inkscape:cy="400"
     inkscape:window-width="1346"
     inkscape:window-height="1237"
     inkscape:window-x="1071"
     inkscape:window-y="442"
     inkscape:window-maximized="0"
     inkscape:current-layer="svg1" />
  <path
     d="m 513.6,909.6 c -7.2,0 -13.6,-2.4 -19.2,-7.2 0,0 -40.8,-36.8 -87.2,-76 C 328.8,761.6 304,748.8 298.4,747.2 H 92.8 c -12.8,0 -23.2,-10.4 -23.2,-24 V 300.8 c 0,-12.8 10.4,-24 23.2,-24 h 185.6 c 6.4,-2.4 32.8,-13.6 120.8,-80 51.2,-38.4 97.6,-76 97.6,-76 4.8,-4 11.2,-6.4 17.6,-6.4 4,0 8.8,0.8 12.8,3.2 9.6,4.8 16,15.2 16,26.4 v 736 c 0,11.2 -6.4,22.4 -16.8,27.2 -4.8,1.6 -8.8,2.4 -12.8,2.4 z m 244,-68 c -12.8,0 -23.2,-10.4 -23.2,-24 0,-10.4 7.2,-17.6 14.4,-21.6 99.2,-59.2 160,-168 160,-284.8 0,-116.8 -61.6,-225.6 -160,-284.8 -8.8,-4.8 -13.6,-12.8 -13.6,-21.6 0,-12.8 10.4,-24 23.2,-24 4.8,0 8.8,1.6 14.4,4.8 112.8,67.2 182.4,192 182.4,324.8 0,133.6 -70.4,257.6 -183.2,324.8 -5.6,4.8 -9.6,6.4 -14.4,6.4 z M 678.4,707.2 c -12.8,0 -23.2,-10.4 -23.2,-24 0,-8.8 4,-16 11.2,-20.8 54.4,-30.4 88,-88 88,-150.4 0,-61.6 -32.8,-118.4 -84.8,-149.6 -7.2,-4 -11.2,-12 -11.2,-20.8 0,-12.8 10.4,-24 23.2,-24 4,0 10.4,2.4 13.6,4 65.6,39.2 107.2,112 107.2,189.6 0,79.2 -42.4,152.8 -110.4,192 -1.6,0 -8,4 -13.6,4 z"
     fill=""
     id="path1"
     sodipodi:nodetypes="scccsssscccscsscssscscsscscssscscsscscs"
     inkscape:export-filename="horn.png"
     inkscape:export-xdpi="50"
     inkscape:export-ydpi="50" />
</svg>
